<svg viewBox="0 0 130 16" fill="none" xmlns="http://www.w3.org/2000/svg">
<path d="M13.5609 5.54688H10.4501C10.3933 5.14441 10.2773 4.78693 10.1021 4.47443C9.92691 4.1572 9.702 3.88731 9.42738 3.66477C9.15276 3.44223 8.83552 3.27178 8.47567 3.15341C8.12056 3.03504 7.73467 2.97585 7.318 2.97585C6.56516 2.97585 5.90939 3.16288 5.35067 3.53693C4.79196 3.90625 4.35872 4.44602 4.05096 5.15625C3.74319 5.86174 3.58931 6.71875 3.58931 7.72727C3.58931 8.7642 3.74319 9.63542 4.05096 10.3409C4.36346 11.0464 4.79906 11.5791 5.35778 11.9389C5.91649 12.2988 6.5628 12.4787 7.2967 12.4787C7.70863 12.4787 8.08978 12.4242 8.44016 12.3153C8.79528 12.2064 9.11014 12.0478 9.38477 11.8395C9.65939 11.6264 9.88666 11.3684 10.0666 11.0653C10.2512 10.7623 10.3791 10.4167 10.4501 10.0284L13.5609 10.0426C13.4804 10.7102 13.2792 11.3542 12.9572 11.9744C12.64 12.59 12.2115 13.1416 11.6717 13.6293C11.1367 14.1122 10.4975 14.4957 9.75408 14.7798C9.01545 15.0592 8.17975 15.1989 7.24698 15.1989C5.94963 15.1989 4.7896 14.9053 3.76687 14.3182C2.74888 13.7311 1.94395 12.8812 1.3521 11.7685C0.764974 10.6558 0.471413 9.30871 0.471413 7.72727C0.471413 6.1411 0.769709 4.79167 1.3663 3.67898C1.96289 2.56629 2.77255 1.71875 3.79528 1.13636C4.818 0.549242 5.96857 0.255681 7.24698 0.255681C8.08978 0.255681 8.87103 0.374053 9.59073 0.610795C10.3152 0.847538 10.9567 1.19318 11.5154 1.64773C12.0742 2.09754 12.5287 2.64915 12.8791 3.30256C13.2342 3.95597 13.4615 4.70407 13.5609 5.54688ZM29.1326 7.72727C29.1326 9.31345 28.832 10.6629 28.2306 11.7756C27.6341 12.8883 26.8197 13.7382 25.7875 14.3253C24.76 14.9077 23.6047 15.1989 22.3216 15.1989C21.0289 15.1989 19.8689 14.9053 18.8414 14.3182C17.814 13.7311 17.002 12.8812 16.4054 11.7685C15.8088 10.6558 15.5105 9.30871 15.5105 7.72727C15.5105 6.1411 15.8088 4.79167 16.4054 3.67898C17.002 2.56629 17.814 1.71875 18.8414 1.13636C19.8689 0.549242 21.0289 0.255681 22.3216 0.255681C23.6047 0.255681 24.76 0.549242 25.7875 1.13636C26.8197 1.71875 27.6341 2.56629 28.2306 3.67898C28.832 4.79167 29.1326 6.1411 29.1326 7.72727ZM26.0147 7.72727C26.0147 6.69981 25.8609 5.83333 25.5531 5.12784C25.2501 4.42235 24.8216 3.88731 24.2676 3.52273C23.7136 3.15814 23.0649 2.97585 22.3216 2.97585C21.5782 2.97585 20.9295 3.15814 20.3755 3.52273C19.8216 3.88731 19.3907 4.42235 19.0829 5.12784C18.7799 5.83333 18.6284 6.69981 18.6284 7.72727C18.6284 8.75473 18.7799 9.62121 19.0829 10.3267C19.3907 11.0322 19.8216 11.5672 20.3755 11.9318C20.9295 12.2964 21.5782 12.4787 22.3216 12.4787C23.0649 12.4787 23.7136 12.2964 24.2676 11.9318C24.8216 11.5672 25.2501 11.0322 25.5531 10.3267C25.8609 9.62121 26.0147 8.75473 26.0147 7.72727ZM34.138 15L29.976 0.454545H33.3354L35.7431 10.5611H35.8638L38.5201 0.454545H41.3965L44.0456 10.5824H44.1735L46.5811 0.454545H49.9405L45.7786 15H42.7814L40.0115 5.49006H39.8979L37.1351 15H34.138ZM64.1326 7.72727C64.1326 9.31345 63.832 10.6629 63.2306 11.7756C62.6341 12.8883 61.8197 13.7382 60.7875 14.3253C59.76 14.9077 58.6047 15.1989 57.3216 15.1989C56.0289 15.1989 54.8689 14.9053 53.8414 14.3182C52.814 13.7311 52.002 12.8812 51.4054 11.7685C50.8088 10.6558 50.5105 9.30871 50.5105 7.72727C50.5105 6.1411 50.8088 4.79167 51.4054 3.67898C52.002 2.56629 52.814 1.71875 53.8414 1.13636C54.8689 0.549242 56.0289 0.255681 57.3216 0.255681C58.6047 0.255681 59.76 0.549242 60.7875 1.13636C61.8197 1.71875 62.6341 2.56629 63.2306 3.67898C63.832 4.79167 64.1326 6.1411 64.1326 7.72727ZM61.0147 7.72727C61.0147 6.69981 60.8609 5.83333 60.5531 5.12784C60.2501 4.42235 59.8216 3.88731 59.2676 3.52273C58.7136 3.15814 58.0649 2.97585 57.3216 2.97585C56.5782 2.97585 55.9295 3.15814 55.3755 3.52273C54.8216 3.88731 54.3907 4.42235 54.0829 5.12784C53.7799 5.83333 53.6284 6.69981 53.6284 7.72727C53.6284 8.75473 53.7799 9.62121 54.0829 10.3267C54.3907 11.0322 54.8216 11.5672 55.3755 11.9318C55.9295 12.2964 56.5782 12.4787 57.3216 12.4787C58.0649 12.4787 58.7136 12.2964 59.2676 11.9318C59.8216 11.5672 60.2501 11.0322 60.5531 10.3267C60.8609 9.62121 61.0147 8.75473 61.0147 7.72727ZM66.4107 15V0.454545H72.1493C73.2478 0.454545 74.1853 0.651041 74.9618 1.04403C75.7431 1.43229 76.3373 1.9839 76.7445 2.69886C77.1564 3.40909 77.3624 4.24479 77.3624 5.20597C77.3624 6.17187 77.1541 7.00284 76.7374 7.69886C76.3207 8.39015 75.717 8.92045 74.9263 9.28977C74.1403 9.65909 73.1886 9.84375 72.0712 9.84375H68.2289V7.37216H71.574C72.1612 7.37216 72.6489 7.29167 73.0371 7.13068C73.4254 6.9697 73.7142 6.72822 73.9036 6.40625C74.0977 6.08428 74.1948 5.68419 74.1948 5.20597C74.1948 4.72301 74.0977 4.31581 73.9036 3.98438C73.7142 3.65294 73.423 3.40199 73.03 3.23153C72.6417 3.05634 72.1517 2.96875 71.5598 2.96875H69.486V15H66.4107ZM74.2658 8.38068L77.8809 15H74.486L70.949 8.38068H74.2658ZM79.5357 15V0.454545H82.611V6.8679H82.8027L88.0371 0.454545H91.7232L86.3255 6.96733L91.7871 15H88.1081L84.1238 9.01989L82.611 10.8665V15H79.5357ZM93.3248 15V0.454545H103.126V2.99006H96.4V6.45597H102.622V8.99148H96.4V12.4645H103.154V15H93.3248ZM105.571 15V0.454545H111.309C112.408 0.454545 113.345 0.651041 114.122 1.04403C114.903 1.43229 115.497 1.9839 115.905 2.69886C116.317 3.40909 116.523 4.24479 116.523 5.20597C116.523 6.17187 116.314 7.00284 115.898 7.69886C115.481 8.39015 114.877 8.92045 114.086 9.28977C113.3 9.65909 112.349 9.84375 111.231 9.84375H107.389V7.37216H110.734C111.321 7.37216 111.809 7.29167 112.197 7.13068C112.586 6.9697 112.874 6.72822 113.064 6.40625C113.258 6.08428 113.355 5.68419 113.355 5.20597C113.355 4.72301 113.258 4.31581 113.064 3.98438C112.874 3.65294 112.583 3.40199 112.19 3.23153C111.802 3.05634 111.312 2.96875 110.72 2.96875H108.646V15H105.571ZM113.426 8.38068L117.041 15H113.646L110.109 8.38068H113.426ZM126.586 4.63778C126.53 4.06487 126.286 3.61979 125.855 3.30256C125.424 2.98532 124.839 2.8267 124.101 2.8267C123.599 2.8267 123.175 2.89773 122.829 3.03977C122.484 3.17708 122.219 3.36884 122.034 3.61506C121.854 3.86127 121.764 4.14062 121.764 4.45312C121.755 4.71354 121.809 4.94081 121.927 5.13494C122.05 5.32907 122.219 5.49716 122.432 5.6392C122.645 5.77651 122.891 5.89725 123.17 6.00142C123.45 6.10085 123.748 6.18608 124.065 6.2571L125.372 6.5696C126.006 6.71165 126.589 6.90104 127.119 7.13778C127.649 7.37453 128.109 7.66572 128.497 8.01136C128.885 8.35701 129.186 8.7642 129.399 9.23295C129.617 9.7017 129.728 10.2391 129.733 10.8452C129.728 11.7353 129.501 12.5071 129.051 13.1605C128.606 13.8092 127.962 14.3134 127.119 14.6733C126.281 15.0284 125.27 15.206 124.086 15.206C122.912 15.206 121.89 15.026 121.018 14.6662C120.152 14.3063 119.475 13.7737 118.987 13.0682C118.504 12.358 118.251 11.4796 118.227 10.4332H121.203C121.236 10.9209 121.376 11.3281 121.622 11.6548C121.873 11.9768 122.207 12.2206 122.623 12.3864C123.045 12.5473 123.521 12.6278 124.051 12.6278C124.572 12.6278 125.024 12.5521 125.407 12.4006C125.796 12.2491 126.096 12.0384 126.309 11.7685C126.523 11.4986 126.629 11.1884 126.629 10.8381C126.629 10.5114 126.532 10.2367 126.338 10.0142C126.148 9.79167 125.869 9.60227 125.5 9.44602C125.135 9.28977 124.688 9.14773 124.157 9.01989L122.574 8.62216C121.347 8.32386 120.379 7.85748 119.669 7.22301C118.959 6.58854 118.606 5.7339 118.611 4.65909C118.606 3.77841 118.84 3.009 119.314 2.35085C119.792 1.69271 120.448 1.17898 121.281 0.809659C122.114 0.44034 123.061 0.255681 124.122 0.255681C125.202 0.255681 126.144 0.44034 126.949 0.809659C127.758 1.17898 128.388 1.69271 128.838 2.35085C129.288 3.009 129.52 3.77131 129.534 4.63778H126.586Z" fill="#10B981"/>
</svg>
