<?xml version="1.0" encoding="utf-8"?>
<!-- Generator: Adobe Illustrator 24.1.1, SVG Export Plug-In . SVG Version: 6.00 Build 0)  -->
<svg version="1.1" id="레이어_1" xmlns="http://www.w3.org/2000/svg" xmlns:xlink="http://www.w3.org/1999/xlink" x="0px"
	 y="0px" viewBox="0 0 72 72" style="enable-background:new 0 0 72 72;" xml:space="preserve">
<style type="text/css">
	.st0{fill:#F5C2D0;}
	.st1{fill:#1E293B;}
	.st2{fill:#FACC15;}
	.st3{fill:#EAB308;}
</style>
<circle class="st0" cx="36.5" cy="42.5" r="20.5"/>
<circle class="st0" cx="15.5" cy="41.5" r="5.5"/>
<circle class="st0" cx="56.5" cy="41.5" r="5.5"/>
<circle class="st1" cx="31.5" cy="44.5" r="1.5"/>
<circle class="st1" cx="41.23" cy="44.52" r="1.5"/>
<path class="st1" d="M46,27H34c0,0.08,0.01,0.17,0.01,0.25l-1.78-0.06c-2.02-0.65-4.22-0.77-6.29-0.3c-3.37,0.77-6.26,2.99-8.5,5.62
	c-0.44,0.52-0.89,1.15-0.75,1.82c0.03,0.01,0.06,0.02,0.09,0.03l-0.16,0.13C18.9,37.34,22.36,39,26,39c4.15,0,7.84-2.16,10-5.41
	C38.15,36.84,41.84,39,46,39c3.91,0,7.59-1.91,9.83-5.12L46,27z"/>
<path class="st1" d="M16.68,34.44c-0.03-0.24,0.01-0.49,0.13-0.71c0.28-0.51,0.91-0.72,1.49-0.77c0.58-0.05,1.17,0.02,1.74-0.13
	c0.09-0.03,0.19-0.06,0.29-0.02c0.1,0.04,0.16,0.13,0.21,0.22c0.12,0.21,0.24,0.43,0.23,0.67c-0.02,0.54-0.63,0.83-1.16,0.94
	c-0.62,0.12-1.25,0.16-1.88,0.2c-0.41,0.02-0.89,0.02-1.13-0.32c-0.17-0.24-0.14-0.57-0.05-0.84c0.27-0.78,1.01-1.31,1.78-1.62
	c1.01-0.41,2.17-0.53,3.18-0.12c1,0.41,1.79,1.43,1.73,2.52c0,0.07-0.01,0.15-0.05,0.21c-0.04,0.06-0.11,0.09-0.17,0.12
	c-0.58,0.26-1.2,0.43-1.82,0.5c-0.39,0.04-0.79,0.05-1.17-0.05c-0.37-0.09-0.72-0.29-1.09-0.36c-0.51-0.11-1.07-0.01-1.56-0.19"/>
<path class="st1" d="M55.87,32.18c-0.21-0.56-0.61-1.03-1.04-1.45c-1.3-1.25-2.94-2.08-4.54-2.89c-0.53-0.27-1.06-0.53-1.62-0.72
	c-0.93-0.31-1.91-0.39-2.89-0.47c-0.79-0.06-1.59-0.13-2.39-0.14c-1.09-0.02-2.17,0.05-3.25,0.11c-1.1,0.07-2.21,0.14-3.31,0.2
	c-1.48,0.09-2.97,0.18-4.4,0.58c-0.59,0.16-1.24,0.44-1.42,1.03c-0.15,0.48,0.07,1,0.36,1.41c0.9,1.3,2.39,2.06,3.89,2.56
	c4.5,1.5,9.38,1.13,14.13,1.09c0.78-0.01,1.57,0,2.34,0.09c1.05,0.13,2.07,0.43,3.13,0.44c0.47,0,0.85,0.07,1.04-0.39
	C56.09,33.17,56.04,32.63,55.87,32.18z"/>
<g>
	<path class="st2" d="M54.5,26h-37c-1.38,0-2.5,1.12-2.5,2.5v0c0,1.38,1.12,2.5,2.5,2.5h37c1.38,0,2.5-1.12,2.5-2.5v0
		C57,27.12,55.88,26,54.5,26z"/>
	<path class="st2" d="M36,28l-15,0c0-8.23,6.77-15,15-15c8.23,0,15,6.77,15,15H36z"/>
	<path class="st3" d="M40,31V14.37c0-1.38-1.79-2.5-4-2.5h0c-2.21,0-4,1.12-4,2.5V31"/>
</g>
</svg>
