<?xml version="1.0" encoding="UTF-8"?>
<svg id="_레이어_1" data-name="레이어 1" xmlns="http://www.w3.org/2000/svg" width="48" height="48" xmlns:xlink="http://www.w3.org/1999/xlink" viewBox="0 0 48 48">
  <defs>
    <style>
      .cls-1 {
        fill: #1e293b;
      }

      .cls-2 {
        fill: none;
        stroke: rgba(248, 250, 252, .1);
      }

      .cls-3 {
        fill: url(#_무제_그라디언트);
        fill-rule: evenodd;
      }
    </style>
    <linearGradient id="_무제_그라디언트" data-name="무제 그라디언트" x1="13.5" y1="25.8" x2="34.91" y2="25.8" gradientTransform="translate(0 50) scale(1 -1)" gradientUnits="userSpaceOnUse">
      <stop offset="0" stop-color="#10b981"/>
      <stop offset="1" stop-color="#a3e635"/>
    </linearGradient>
  </defs>
  <g>
    <rect class="cls-1" width="48" height="48" rx="12" ry="12"/>
    <rect class="cls-2" x=".5" y=".5" width="47" height="47" rx="11.5" ry="11.5"/>
  </g>
  <path class="cls-3" d="M26.85,14.48c-1.52-1.31-3.78-1.31-5.3,0-.66,.57-1.48,.91-2.35,.97-2,.15-3.6,1.74-3.75,3.75-.07,.87-.41,1.69-.97,2.35-1.31,1.52-1.31,3.78,0,5.3,.57,.66,.91,1.48,.97,2.35,.15,2,1.74,3.6,3.75,3.75,.87,.06,1.69,.41,2.35,.97,1.52,1.31,3.78,1.31,5.3,0,.66-.57,1.48-.91,2.35-.97,2-.15,3.6-1.74,3.75-3.75,.06-.87,.41-1.69,.97-2.35,1.31-1.52,1.31-3.78,0-5.3-.57-.66-.91-1.48-.97-2.35-.15-2-1.74-3.6-3.75-3.75-.87-.06-1.69-.41-2.35-.97Zm2.69,7.47c.42-.46,.38-1.17-.08-1.59-.46-.42-1.17-.38-1.59,.08l-4.68,5.2-2.77-2.31c-.48-.4-1.19-.33-1.58,.14-.4,.48-.33,1.19,.14,1.58l3.38,2.82c.59,.49,1.46,.43,1.97-.14l5.21-5.79Z"/>
</svg>