<svg width="143" height="152" viewBox="0 0 143 152" fill="none" xmlns="http://www.w3.org/2000/svg">
<path d="M87.3887 103.318L77.3428 94.528L67.2969 80.7148L93.6674 84.4821C92.8302 87.4121 88.3933 90.2585 87.3887 93.2722C86.3841 96.286 86.9701 100.807 87.3887 103.318Z" fill="#0A1830"/>
<rect x="47.1484" y="98.2949" width="20.0918" height="32.4909" rx="10.0459" transform="rotate(39.3649 47.1484 98.2949)" fill="#F5C2D0"/>
<path d="M21.998 118.524L34.6238 103.464L47.2988 114.831C51.4592 118.563 51.7582 124.99 47.9846 129.112C44.1835 133.264 37.6961 133.501 33.6233 129.616L21.998 118.524Z" fill="#4484FF"/>
<path d="M89 104.524C85.4 100.924 86.1667 97.3577 87 96.0244L77 88.5244L73.5 104.524C80.1667 106.024 92.6 108.124 89 104.524Z" fill="#4484FF"/>
<path d="M59.9766 73.7012L83.2828 91.6301L46.4976 130.601L34.4637 106.866L59.9766 73.7012Z" fill="#4484FF"/>
<rect x="59.9219" y="109.886" width="24.2516" height="53.5318" transform="rotate(-45.1857 59.9219 109.886)" fill="#4484FF"/>
<path d="M112.557 132.433L100 144.99L106.279 151.27C106.697 150.852 111.804 146.247 128.882 131.177C123.859 126.154 115.906 129.921 112.557 132.433Z" fill="black"/>
<path d="M16.4511 112.139L29.4714 100.062L26.1533 96.4842C24.651 94.8642 22.0746 94.7091 20.3743 96.1198C17.136 98.8067 10.9619 103.891 0.0907945 112.78C4.92147 117.989 13.0104 114.523 16.4511 112.139Z" fill="black"/>
<path fill-rule="evenodd" clip-rule="evenodd" d="M134.236 61.9156C130.919 59.4024 126.193 60.0536 123.68 63.3701L116.823 72.4194C113.796 70.6939 109.873 71.2561 107.466 73.9643C104.701 77.0742 104.981 81.8365 108.091 84.6012L112.22 88.2712C112.452 88.4778 112.694 88.6674 112.943 88.8401C113.116 88.9984 113.298 89.1501 113.488 89.2946C116.805 91.8077 121.531 91.1565 124.044 87.84L135.69 72.4711C138.203 69.1546 137.552 64.4287 134.236 61.9156Z" fill="#F5C2D0"/>
<ellipse cx="131.104" cy="66.1673" rx="9.11279" ry="6.2787" transform="rotate(35.3113 131.104 66.1673)" fill="#F5C2D0"/>
<path d="M54 42.7012C68.0643 42.7012 82.3681 46.1487 86.1353 48.2416C88.2282 49.4973 93.4186 52.26 97.437 53.2645C101.455 54.2691 112.814 64.2596 117 69.7012C117 70.9569 114.515 75.3656 112.506 78.3793C110.497 81.3931 106.646 84.658 104.971 85.9138L99 80.7012L94.5 88.2012L86.1353 100.701L47.5 89.7012C54 79.2012 59 68.2012 64.7877 62.0547C63.7832 61.0501 60.6019 61.6361 57.2533 62.0547C57.2533 58.7061 54 50.7379 54 42.7012Z" fill="#4484FF"/>
<path d="M15.8497 113.298L28.3824 97.9025L45.8734 113.656C50.0029 117.375 50.3101 123.747 46.5574 127.846C42.8263 131.922 36.4975 132.201 32.4219 128.47L15.8497 113.298Z" fill="#4484FF"/>
<ellipse cx="50.2541" cy="80.8003" rx="9.11279" ry="6.2787" transform="rotate(-12.4769 50.2541 80.8003)" fill="#F5C2D0"/>
<path d="M121.5 96.2012C115.9 98.6012 103.167 85.5345 97.5 78.7012L101.5 71.7012L117 69.7012L120.5 64.7012L134.5 77.7012C132.5 82.8678 127.1 93.8012 121.5 96.2012Z" fill="#4484FF"/>
<path d="M80.0036 27.6786C78.1238 38.9645 85.1872 49.8948 96.4731 51.7746C112.25 56.5134 118.371 43.415 120.014 38.7549C120.38 37.7153 120.487 36.6284 120.39 35.5304C119.87 29.6567 117.099 10.1367 103.28 10.9047C91.9945 9.02492 81.8833 16.3927 80.0036 27.6786Z" fill="#F5C2D0"/>
<path d="M121.168 35.6435C120.052 35.4167 120.224 31.0034 119.625 30.0032L116.686 35.9927L112.005 50.0034C117.505 47.0034 121.902 38.4016 122.177 37.2957C122.476 36.0962 121.964 35.8055 121.168 35.6435Z" fill="#F5C2D0"/>
<path fill-rule="evenodd" clip-rule="evenodd" d="M115.954 17.8832C111.012 17.7786 102.048 18.2025 93.9056 24.9649C85.9413 31.5794 84.962 35.8609 83.5262 42.1384C83.4381 42.5235 83.3484 42.916 83.2551 43.3171C79.9878 38.9496 78.44 33.3067 79.4069 27.5016C81.2866 16.2156 91.9595 8.59047 103.245 10.4703C108.452 11.3375 112.88 14.0762 115.954 17.8832Z" fill="#0F172A"/>
<ellipse cx="1.47975" cy="1.4858" rx="1.47975" ry="1.4858" transform="matrix(-0.997271 0.0738268 0.0738268 0.997271 113.75 27.1992)" fill="#334155"/>
<circle cx="5.17912" cy="5.17912" r="5.17912" transform="matrix(-0.986411 -0.164297 -0.164297 0.986411 94.1484 25.7598)" fill="#F5C2D0"/>
<rect x="90.2812" y="40.2539" width="14" height="16.1893" rx="7" transform="rotate(35 90.2812 40.2539)" fill="#F5C2D0"/>
<mask id="path-21-outside-1_4903_174556" maskUnits="userSpaceOnUse" x="78.7415" y="-0.887926" width="39.2793" height="20.0939" fill="black">
<rect fill="white" x="78.7415" y="-0.887926" width="39.2793" height="20.0939"/>
<path fill-rule="evenodd" clip-rule="evenodd" d="M113.936 12.8189L83.8425 15.3241C84.0146 9.44252 90.1194 4.32775 98.0232 3.66978C105.927 3.01181 112.794 7.04677 113.936 12.8189Z"/>
</mask>
<path fill-rule="evenodd" clip-rule="evenodd" d="M113.936 12.8189L83.8425 15.3241C84.0146 9.44252 90.1194 4.32775 98.0232 3.66978C105.927 3.01181 112.794 7.04677 113.936 12.8189Z" fill="#FACC15"/>
<path d="M83.8425 15.3241L80.8438 15.2364L80.7456 18.5923L84.0914 18.3138L83.8425 15.3241ZM113.936 12.8189L114.185 15.8086L117.53 15.5301L116.879 12.2366L113.936 12.8189ZM84.0914 18.3138L114.185 15.8086L113.687 9.82928L83.5936 12.3345L84.0914 18.3138ZM86.8412 15.4119C86.9509 11.6621 91.1976 7.24836 98.2721 6.65944L97.7744 0.680119C89.0411 1.40713 81.0782 7.22296 80.8438 15.2364L86.8412 15.4119ZM98.2721 6.65944C105.347 6.07051 110.265 9.7213 110.993 13.4013L116.879 12.2366C115.322 4.37224 106.508 -0.0468925 97.7744 0.680119L98.2721 6.65944Z" fill="#EAB308" mask="url(#path-21-outside-1_4903_174556)"/>
<rect x="78.8281" y="15.7422" width="40.2635" height="5.03294" rx="1.67765" transform="rotate(-4.75871 78.8281 15.7422)" fill="#FACC15"/>
<path d="M57.0067 76.4872C57.3434 80.6347 54.2541 84.2698 50.1065 84.6065C45.959 84.9431 42.3239 81.8538 41.9873 77.7063L40.0297 53.5893C39.6931 49.4418 42.7824 45.8067 46.9299 45.47C51.0774 45.1334 54.7126 48.2227 55.0492 52.3702L57.0067 76.4872Z" fill="#F5C2D0"/>
<path d="M56.9978 63.2009C56.9978 61.2009 63.3311 60.8676 63.4978 61.2009V54.2009L53.9978 42.701C52.4978 42.701 54.5978 42.5009 44.9978 43.7009C35.3978 44.9009 36.6647 68.0005 38.998 77.0005L58.9978 73.0005C58.6645 71.5006 56.9978 65.2009 56.9978 63.2009Z" fill="#4484FF"/>
</svg>
