<?xml version="1.0" encoding="UTF-8"?>
<svg id="_레이어_1" data-name="레이어 1" xmlns="http://www.w3.org/2000/svg" viewBox="0 0 290.03 214.94">
  <defs>
    <style>
      .cls-1 {
        fill: #4484ff;
      }

      .cls-2 {
        fill: #fff;
        stroke-miterlimit: 4;
        stroke-width: 19.48px;
      }

      .cls-2, .cls-3 {
        stroke: #1e293b;
      }

      .cls-4 {
        fill: #eab308;
      }

      .cls-5, .cls-6 {
        fill: #facc15;
      }

      .cls-7 {
        fill: #f0bfcc;
      }

      .cls-8 {
        fill: #334155;
      }

      .cls-9 {
        fill: #16a34a;
      }

      .cls-3 {
        fill: none;
        stroke-linecap: round;
        stroke-width: 2.19px;
      }

      .cls-10 {
        fill: #94a3b8;
      }

      .cls-6, .cls-11 {
        fill-rule: evenodd;
      }

      .cls-12 {
        fill: #475569;
      }

      .cls-13 {
        fill: #f5c2d0;
      }

      .cls-11 {
        fill: #1e293b;
      }

      .cls-14 {
        fill: #cdef8e;
      }
    </style>
  </defs>
  <path class="cls-1" d="M176.99,69.18c.99-11.03,10.74-19.17,21.78-18.18,11.03,.99,19.17,10.74,18.18,21.78l-2.11,23.48-39.96-3.59,2.11-23.48Z"/>
  <path class="cls-12" d="M42.07,151.15c.31-8.06,7.1-14.35,15.16-14.04l30.41,1.17-1.29,33.45-30.41-1.17c-8.06-.31-14.35-7.1-14.04-15.16l.16-4.26Z"/>
  <polygon class="cls-12" points=".29 148.77 42.97 150.08 42.68 156.16 0 154.85 .29 148.77"/>
  <path class="cls-14" d="M88.69,91c.25-6.62,5.83-11.78,12.45-11.53l177.35,6.82c6.62,.25,11.79,5.83,11.53,12.45l-2.16,56.13-201.33-7.75,2.16-56.13Z"/>
  <rect class="cls-9" x="174.24" y="62.74" width="24.96" height="201.48" transform="translate(16.19 343.77) rotate(-87.8)"/>
  <circle class="cls-2" cx="122.07" cy="173.48" r="26.78"/>
  <ellipse class="cls-2" cx="250.4" cy="178.42" rx="26.77" ry="26.78"/>
  <path class="cls-13" d="M197.13,44.17h0c3.35-.9,6.79,1.08,7.7,4.43h0c.9,3.35-1.08,6.79-4.43,7.7h0c-3.35,.9-6.79-1.08-7.7-4.43h0c-.9-3.35,1.08-6.79,4.43-7.7Z"/>
  <path class="cls-13" d="M179.52,31.06c1.12,11.39,11.26,19.71,22.65,18.59,11.39-1.12,19.71-11.26,18.59-22.65-1.12-11.39-11.26-19.71-22.65-18.59-11.39,1.12-19.71,11.26-18.59,22.65Z"/>
  <ellipse class="cls-8" cx="193" cy="35.39" rx="1.48" ry="1.42" transform="translate(-.8 4.67) rotate(-1.38)"/>
  <ellipse class="cls-8" cx="202.65" cy="36.05" rx="1.47" ry="1.48" transform="translate(152.33 235.63) rotate(-85.93)"/>
  <circle class="cls-7" cx="180.98" cy="29.42" r="5.18"/>
  <circle class="cls-13" cx="220.35" cy="33.31" r="5.18"/>
  <path class="cls-11" d="M180.51,24.77c2.84,2.84,6.63,4.42,10.63,4.03,4.05-.4,7.51-2.75,9.74-6.18,2.4,6.35,8.16,10.57,14.41,9.95,2.25-.22,4.31-1.04,6.08-2.32-.02-.41-.05-.82-.09-1.23-1.29-13.08-11.56-22.78-22.95-21.66-8.88,.87-15.81,8.07-17.82,17.4Z"/>
  <path class="cls-6" d="M218.28,17.67l-29.56-6.17c1.84-5.59,9.15-8.75,16.91-7.13,7.76,1.62,13.2,7.44,12.65,13.3Z"/>
  <rect class="cls-5" x="200.47" y="-3.09" width="5.03" height="40.26" rx="1.68" ry="1.68" transform="translate(144.85 212.27) rotate(-78.22)"/>
  <path class="cls-4" d="M199.94,6.99c.57-2.72,3.23-4.47,5.95-3.9,2.72,.57,4.47,3.23,3.9,5.95l-1.37,6.57-9.85-2.06,1.37-6.57Z"/>
  <path class="cls-1" d="M163.1,41.24c6,5.2,20.83,10.17,27.5,12l-10.5,14-24.5-11.5c0-7,1.5-19.7,7.5-14.5Z"/>
  <path class="cls-1" d="M228.06,68.26c-.77-5.71-15.34-12.41-22.28-15.29l1.47,3.58,19.31,22.92c.81-1.36,2.27-5.5,1.5-11.21Z"/>
  <path class="cls-1" d="M202.55,57.56h0c4.38-3.37,10.65-2.56,14.02,1.82l5.45,7.07c3.37,4.38,2.56,10.65-1.82,14.02h0c-4.38,3.37-10.65,2.56-14.02-1.82l-5.45-7.07c-3.37-4.38-2.56-10.65,1.82-14.02Z"/>
  <path class="cls-13" d="M205.74,81.93h0c-1.4,4.41-6.1,6.86-10.51,5.46l-18.56-5.87c-4.41-1.4-6.86-6.1-5.46-10.51h0c1.4-4.41,6.1-6.86,10.51-5.46l18.56,5.87c4.41,1.4,6.86,6.1,5.46,10.51Z"/>
  <path class="cls-1" d="M216.79,74.83c5.32,1.48,8.44,6.99,6.96,12.31-1.48,5.32-6.99,8.44-12.31,6.96l-23.8-6.61,5.36-19.27,23.8,6.61Z"/>
  <ellipse class="cls-13" cx="174.41" cy="71.59" rx="9.81" ry="7.07" transform="translate(51.92 214.9) rotate(-71.79)"/>
  <path class="cls-8" d="M123.36,103.23L163.35,9.71c3.47-8.12,12.88-11.9,21-8.42h0c8.12,3.47,11.9,12.88,8.42,21l-39.99,93.51c-3.47,8.12-12.88,11.9-21,8.42h0c-8.12-3.47-11.9-12.88-8.42-21Z"/>
  <circle class="cls-10" cx="138.08" cy="109.52" r="10.74"/>
  <path class="cls-3" d="M135.71,113.99l5.04-1.85c.47-.17,.7-.71,.5-1.17l-3.24-7.43"/>
  <path class="cls-13" d="M154.88,55.59c-.45,.4-1.86,1.17-3.89,1.05-6.62-1.09-7.05-7.09-7.47-10.06-.36-5-.12-12.4,5.78-16.46,7.37-5.07,11.45,2.44,9.61,3.71-1.84,1.27-3.18-1.07-4.1-.44-.92,.63-2.2,2.33-.72,5.65,1.48,3.33,4.65,4.4,4.93,6.38,.22,1.58-.71,2.12-1.21,2.19,.35,.12,1.02,.77,.84,2.41-.17,1.56-1.19,1.53-1.76,1.31,.35,.19,.79,.88,.26,2.44-.57,1.7-1.75,1.93-2.27,1.83Z"/>
  <path class="cls-1" d="M209.17,70.86c1.77-5.05,7.3-7.72,12.35-5.95,5.14,1.8,7.79,7.48,5.87,12.57l-4.14,10.96-17.92-6.61,3.84-10.98Z"/>
</svg>