<?xml version="1.0" encoding="UTF-8"?>
<svg id="_레이어_1" data-name="레이어 1" xmlns="http://www.w3.org/2000/svg" viewBox="0 0 208.36 244.5">
  <defs>
    <style>
      .cls-1 {
        stroke-miterlimit: 4;
        stroke-width: .15px;
      }

      .cls-1, .cls-2, .cls-3 {
        stroke: #6b9931;
      }

      .cls-1, .cls-3 {
        fill: #6c9931;
      }

      .cls-4 {
        fill: #73534e;
        fill-rule: evenodd;
      }

      .cls-2 {
        fill: #fef6ec;
        stroke-width: 4.22px;
      }

      .cls-2, .cls-3 {
        stroke-miterlimit: 4;
      }

      .cls-5 {
        fill: #fff;
        stroke: #1d293b;
        stroke-miterlimit: 4;
        stroke-width: 19.48px;
      }

      .cls-6 {
        fill: #c6de8e;
      }

      .cls-3 {
        stroke-width: .15px;
      }

      .cls-7 {
        fill: #249c49;
      }

      .cls-8 {
        stroke: #26b07c;
        stroke-width: 18.6px;
      }

      .cls-8, .cls-9 {
        fill: none;
      }

      .cls-9 {
        stroke: #f3f4f6;
        stroke-miterlimit: 4;
        stroke-width: 18.6px;
      }
    </style>
  </defs>
  <circle class="cls-2" cx="122.01" cy="94.97" r="20.24"/>
  <path class="cls-3" d="M114.51,78.02h0c.57-.24,1.24,.03,1.48,.6l6.13,14.5c.24,.57-.03,1.24-.6,1.48h0c-.57,.24-1.24-.03-1.48-.6l-6.13-14.5c-.24-.57,.03-1.24,.6-1.48Z"/>
  <path class="cls-1" d="M126,84.09h0c.56,.23,.83,.88,.6,1.44l-3.49,8.51c-.23,.56-.88,.83-1.44,.6h0c-.56-.23-.83-.88-.6-1.44l3.49-8.51c.23-.56,.88-.83,1.44-.6Z"/>
  <circle class="cls-9" cx="135.86" cy="98.04" r="48.25"/>
  <path class="cls-8" d="M145.11,50.69c26.15,5.11,43.21,30.45,38.1,56.6"/>
  <path class="cls-4" d="M74.95,3.83c-.18-1.92,1.23-3.63,3.16-3.81,1.92-.18,3.63,1.23,3.81,3.16l12.83,137.4c.18,1.93-1.23,3.63-3.16,3.81-1.92,.18-3.63-1.24-3.81-3.16l-4.14-44.34c-.16,.04-.33,.07-.49,.08l-33.85,3.16c-.17,.02-.34,.02-.5,.01l3.49,37.37c.18,1.93-1.23,3.63-3.16,3.81-1.92,.18-3.63-1.23-3.81-3.16L33.13,7.73c-.18-1.92,1.23-3.63,3.16-3.81,1.92-.18,3.63,1.23,3.81,3.16l1.72,18.45c.16-.04,.33-.07,.49-.08l33.85-3.16c.17-.02,.34-.02,.5-.01l-1.72-18.45Zm-26.8,89.42c.16-.04,.33-.07,.49-.08l33.85-3.16c.17-.02,.34-.02,.5-.01l-.94-10.03c-.16,.04-.33,.07-.49,.08l-33.85,3.16c-.17,.02-.34,.02-.5,.01l.94,10.03Zm-1.58-16.93c.16-.04,.33-.07,.49-.08l33.85-3.16c.17-.02,.34-.02,.5-.01l-.94-10.03c-.16,.04-.33,.07-.49,.08l-33.85,3.16c-.17,.02-.34,.02-.5,.01l.94,10.03Zm32.77-20.17c.17-.02,.34-.02,.5-.01l-.94-10.03c-.16,.04-.33,.07-.49,.08l-33.85,3.16c-.17,.02-.34,.02-.5,.01l.94,10.03c.16-.04,.33-.07,.49-.08l33.85-3.16Zm-2.02-26.96l.94,10.03c-.16,0-.33,0-.5,.01l-33.85,3.16c-.17,.02-.33,.04-.49,.08l-.94-10.03c.16,0,.33,0,.5-.01l33.85-3.16c.17-.02,.33-.04,.49-.08Z"/>
  <path class="cls-6" d="M7.71,111.85c.62-6.6,6.47-11.45,13.06-10.83l176.71,16.51c6.6,.62,11.45,6.47,10.83,13.06l-5.23,55.93L2.48,167.78l5.22-55.93Z"/>
  <rect class="cls-7" x="89.14" y="88.84" width="24.96" height="201.48" transform="translate(-96.58 273.12) rotate(-84.66)"/>
  <circle class="cls-5" cx="36.52" cy="196.03" r="26.78"/>
  <circle class="cls-5" cx="164.4" cy="207.97" r="26.78" transform="translate(-57.96 352.31) rotate(-84.66)"/>
</svg>