<?xml version="1.0" encoding="UTF-8"?>
<svg id="_레이어_1" data-name="레이어 1" xmlns="http://www.w3.org/2000/svg" width="153" height="226" viewBox="0 0 153 226">
  <defs>
    <style>
      .cls-1, .cls-2 {
        fill: #4484ff;
      }

      .cls-3 {
        fill: #eab308;
      }

      .cls-2, .cls-4, .cls-5 {
        fill-rule: evenodd;
      }

      .cls-6, .cls-5 {
        fill: #facc15;
      }

      .cls-7 {
        fill: #a5f3fc;
      }

      .cls-8 {
        fill: #334155;
      }

      .cls-9 {
        fill: #06b6d4;
      }

      .cls-4 {
        fill: #0f172a;
      }

      .cls-10 {
        fill: #f5c2d0;
      }
    </style>
  </defs>
  <rect class="cls-7" x="94.22" y="46.92" width="58.4" height="58.4" rx="14.02" ry="14.02"/>
  <rect class="cls-9" x="108.82" y="75.04" width="8.65" height="10.81" rx="1.22" ry="1.22"/>
  <rect class="cls-9" x="118.56" y="70.72" width="8.65" height="15.14" rx="1.22" ry="1.22"/>
  <rect class="cls-9" x="128.29" y="66.39" width="8.65" height="19.47" rx="1.22" ry="1.22"/>
  <path d="M118.52,188.34l-19.85,11.34,5.67,9.93c.66-.38,8.56-4.37,34.88-17.3-4.54-7.94-15.69-5.96-20.7-3.97Z"/>
  <rect class="cls-1" x="75.89" y="130.12" width="31.22" height="68.92" transform="translate(-69.92 67.61) rotate(-29.93)"/>
  <path class="cls-10" d="M118.59,99.06c-1.3,2.52-4.81,4.17-6.41,4.67l-9.15-.03,3.2,11.99c2.63-.17,9.33-.84,15.1-2.18,7.21-1.68,7.17-2.29,10.69-4.34,5.99-3.49,4.79-5.79,2.08-5.62l-10.32,.66h0c-1.21,.08-4.25,.27-1.98-2.31,2.27-2.58-1.6-5.99-3.23-2.84Z"/>
  <path class="cls-1" d="M53.25,154.32c-3-7.61-5.11-15.53-6.29-23.62l32.81,.17,6.22,36.27-27.05,1.63-5.69-14.45Z"/>
  <path d="M33.99,185.61l-6.08-22.19-6.87,1.25c-2.4,.43-4.05,2.76-3.7,5.17,.75,5.14,2.22,15.41,4.8,34.08,8.99-1.63,12.16-12.95,11.85-18.31Z"/>
  <path class="cls-1" d="M34.71,188.33l-8.65-26.78,44.75-11.41c5.87-1.5,11.83,2.07,13.29,7.95l1.58,6.37c1.45,5.85-2.12,11.77-7.97,13.22l-42.99,10.65Z"/>
  <path class="cls-10" d="M40.26,47.38c2.45,12.19,13.84,20.56,26.02,18.11,17.85-1.28,19.01-16.94,18.88-22.3-.03-1.2-.34-2.34-.86-3.42-2.79-5.76-13.14-24.52-26.88-18.4-12.19,2.45-19.61,13.83-17.16,26.01Z"/>
  <path class="cls-10" d="M85.13,39.58c-1.22,.2-2.75-4.35-3.74-5.13l-.67,7.22,.65,16.03c4.43-5.17,5.57-15.6,5.43-16.83-.16-1.33-.79-1.43-1.66-1.29Z"/>
  <path class="cls-4" d="M72.99,23.56c-5.06,1.8-14,5.69-19.66,15.7-5.54,9.79-4.88,14.52-3.91,21.44,.06,.42,.12,.86,.18,1.3-5-3.17-8.75-8.31-10.01-14.57-2.45-12.19,5.45-24.05,17.64-26.49,5.62-1.13,11.17-.06,15.76,2.62Z"/>
  <ellipse class="cls-8" cx="73.57" cy="36.01" rx="1.61" ry="1.61" transform="translate(-8.33 34.52) rotate(-25.04)"/>
  <circle class="cls-10" cx="49.47" cy="46.6" r="5.63"/>
  <rect class="cls-10" x="51.98" y="58.97" width="17.59" height="15.21" rx="7.6" ry="7.6" transform="translate(-7.61 125.3) rotate(-88.26)"/>
  <polygon class="cls-3" points="39.41 33.35 36.33 34.42 37.53 37.87 40.81 36.29 39.41 33.35"/>
  <polygon class="cls-3" points="69 19.2 70.41 22.14 73.7 20.56 71.76 17.47 69 19.2"/>
  <rect class="cls-3" x="37.8" y="23.02" width="32.8" height="6.52" transform="translate(-6.03 25.96) rotate(-25.56)"/>
  <path class="cls-3" d="M42.49,32.29c-1.34-3.85,1.27-9.97,8.23-13.3l-2.81-5.88c-8.59,4.11-14.43,13.09-11.58,21.31l6.16-2.14Z"/>
  <path class="cls-3" d="M50.72,18.99c6.96-3.33,13.36-1.52,15.52,1.94l5.53-3.45c-4.61-7.39-15.27-8.47-23.86-4.36l2.81,5.88Z"/>
  <path class="cls-5" d="M69,19.2l-29.59,14.16c-2.1-6.04,2.13-13.59,9.9-17.31,7.77-3.72,16.3-2.27,19.69,3.15Z"/>
  <rect class="cls-6" x="33.51" y="26.01" width="43.74" height="5.47" rx="1.82" ry="1.82" transform="translate(-6.98 26.71) rotate(-25.56)"/>
  <path class="cls-1" d="M46.12,77.34c3.72-8.75,10.52-8.8,13.59-8.24l5.92,34.77,33.58-1.95,2.92,19.21c-15.27,1.01-50.48,11.59-60.91-.42-6.76-7.79,.26-32.44,4.91-43.38Z"/>
  <path class="cls-2" d="M86.77,99.04s-.01-.08-.02-.13c-2.59-19.5-14.41-34.02-26.39-32.43-14.18,.51-19.58,18.63-17.02,38.09h0l3.76,28.32,43.39-5.77-3.73-28.09Z"/>
  <path class="cls-1" d="M53.96,75.21c3.87-8.67,10.38-8.23,13.49-7.61l6.07,34.52,34.28-3.74,3.65,25.01c-15.54,.7-52.43,7.29-62.92-4.93-6.8-7.92,.6-32.42,5.43-43.26Z"/>
  <rect class="cls-1" x="55.41" y="122" width="35.28" height="24.33"/>
</svg>