<?xml version="1.0" encoding="UTF-8"?>
<svg id="_레이어_1" data-name="레이어 1" xmlns="http://www.w3.org/2000/svg" width="153" height="226" xmlns:xlink="http://www.w3.org/1999/xlink" viewBox="0 0 153 226">
  <defs>
    <style>
      .cls-1, .cls-2 {
        fill: #4484ff;
      }

      .cls-3 {
        fill: #eab308;
      }

      .cls-2, .cls-4, .cls-5 {
        fill-rule: evenodd;
      }

      .cls-6, .cls-5 {
        fill: #facc15;
      }

      .cls-7 {
        fill: #e9d5ff;
      }

      .cls-8 {
        fill: #334155;
      }

      .cls-4 {
        fill: #0f172a;
      }

      .cls-9 {
        clip-path: url(#clippath);
      }

      .cls-10 {
        fill: none;
      }

      .cls-11 {
        fill: #f5c2d0;
      }

      .cls-12 {
        fill: #a855f7;
      }

      .cls-13 {
        fill: #f8fafc;
      }
    </style>
    <clipPath id="clippath">
      <rect class="cls-10" x="111.73" y="68.92" width="21.68" height="14.02" rx="2.63" ry="2.63"/>
    </clipPath>
  </defs>
  <rect class="cls-7" x="93.83" y="46.92" width="58.4" height="58.4" rx="14.02" ry="14.02"/>
  <g class="cls-9">
    <g>
      <rect class="cls-13" x="111.73" y="68.92" width="21.68" height="14.02" rx="2.63" ry="2.63"/>
      <path class="cls-12" d="M121.17,76.79c.93,.69,2.2,.69,3.13,0l8.48-6.29c.68-.5,.32-1.58-.52-1.58h-19.04c-.84,0-1.2,1.08-.52,1.58l8.48,6.29Z"/>
    </g>
  </g>
  <path class="cls-11" d="M118.2,99.06c-1.3,2.52-4.81,4.17-6.4,4.67l-9.15-.03,3.2,11.99c2.63-.17,9.33-.84,15.1-2.18,7.21-1.68,7.17-2.29,10.69-4.34,5.99-3.49,4.79-5.79,2.08-5.62l-10.32,.66h0c-1.21,.08-4.25,.27-1.97-2.31,2.27-2.58-1.6-5.99-3.23-2.84Z"/>
  <path class="cls-1" d="M52.86,154.32c-3-7.61-5.11-15.53-6.29-23.62l32.81,.17,6.22,36.27-27.05,1.63-5.69-14.45Z"/>
  <path d="M78.95,201.54l-22.81,1.29,.3,8.7c.1,2.43,2.18,4.39,4.62,4.36,5.19-.05,15.57-.1,34.42-.12-.39-9.13-11.17-13.8-16.52-14.23Z"/>
  <path class="cls-1" d="M82.24,201.8l-28.11,1.54,.38-46.18c.05-6.06,5.02-10.91,11.08-10.82l6.56,.1c6.03,.09,10.55-8.6,10.46-2.58l7.68,2.48-8.06,55.46Z"/>
  <path class="cls-11" d="M39.89,47.38c2.45,12.19,13.84,20.56,26.02,18.11,17.85-1.28,19.01-16.94,18.88-22.3-.03-1.2-.34-2.34-.86-3.42-2.79-5.76-13.14-24.52-26.88-18.4-12.19,2.45-19.61,13.83-17.16,26.01Z"/>
  <path class="cls-11" d="M84.75,39.59c-1.22,.2-2.75-4.35-3.74-5.13l-.67,7.22,.65,16.03c4.43-5.17,5.57-15.6,5.43-16.83-.16-1.33-.79-1.43-1.66-1.29Z"/>
  <path class="cls-4" d="M72.61,23.56c-5.06,1.8-14,5.69-19.66,15.7-5.54,9.79-4.88,14.52-3.91,21.44,.06,.42,.12,.86,.18,1.3-5-3.17-8.75-8.31-10.01-14.57-2.45-12.19,5.45-24.05,17.64-26.49,5.62-1.13,11.17-.06,15.77,2.62Z"/>
  <ellipse class="cls-8" cx="73.2" cy="36.02" rx="1.61" ry="1.61" transform="translate(-8.36 34.36) rotate(-25.04)"/>
  <circle class="cls-11" cx="49.09" cy="46.6" r="5.63"/>
  <rect class="cls-11" x="51.6" y="58.97" width="17.59" height="15.21" rx="7.6" ry="7.6" transform="translate(-7.98 124.92) rotate(-88.26)"/>
  <polygon class="cls-3" points="39.02 33.35 35.94 34.42 37.13 37.87 40.42 36.29 39.02 33.35"/>
  <polygon class="cls-3" points="68.61 19.2 70.02 22.14 73.31 20.57 71.37 17.47 68.61 19.2"/>
  <rect class="cls-3" x="37.41" y="23.02" width="32.8" height="6.52" transform="translate(-6.07 25.79) rotate(-25.56)"/>
  <path class="cls-3" d="M42.1,32.29c-1.34-3.85,1.27-9.97,8.23-13.3l-2.81-5.88c-8.59,4.11-14.43,13.09-11.58,21.31l6.16-2.14Z"/>
  <path class="cls-3" d="M50.33,18.99c6.96-3.33,13.36-1.52,15.52,1.94l5.53-3.45c-4.61-7.39-15.27-8.47-23.86-4.36l2.81,5.88Z"/>
  <path class="cls-5" d="M68.61,19.2l-29.59,14.16c-2.1-6.04,2.13-13.59,9.9-17.31,7.77-3.72,16.3-2.27,19.69,3.15Z"/>
  <rect class="cls-6" x="33.12" y="26.01" width="43.74" height="5.47" rx="1.82" ry="1.82" transform="translate(-7.02 26.54) rotate(-25.56)"/>
  <path class="cls-1" d="M45.73,77.34c3.72-8.75,10.52-8.8,13.59-8.24l5.92,34.77,33.58-1.95,2.92,19.21c-15.27,1.01-50.48,11.59-60.91-.42-6.76-7.79,.26-32.44,4.91-43.38Z"/>
  <path class="cls-2" d="M86.38,99.04s-.01-.08-.02-.13c-2.59-19.5-14.41-34.02-26.39-32.43-14.18,.51-19.58,18.63-17.01,38.09h0l3.76,28.32,43.39-5.77-3.73-28.09Z"/>
  <path class="cls-1" d="M53.57,75.22c3.87-8.67,10.38-8.23,13.49-7.61l6.07,34.52,34.28-3.74,3.65,25.01c-15.54,.7-52.43,7.29-62.92-4.93-6.8-7.92,.6-32.42,5.43-43.26Z"/>
  <rect class="cls-1" x="55.02" y="122" width="35.28" height="24.33"/>
</svg>