<svg width="255" height="111" viewBox="0 0 255 111" fill="none" xmlns="http://www.w3.org/2000/svg">
<path d="M223.481 96.3761C245.481 98.3761 253.648 106.543 254.981 110.376C209.315 109.709 112.981 109.876 92.9814 109.876C67.9814 109.876 74.4814 92.876 64.9814 85.376C55.4814 77.876 25.4812 110.376 5.48125 75.8757C-14.5188 41.3757 24.9812 27.8757 47.4812 28.8757C69.9812 29.8757 79.9812 65.3757 95.4812 66.3757C110.981 67.3757 103.981 46.8757 125.981 46.8757C147.981 46.8757 147.981 56.8761 157.981 62.3761C167.981 67.8761 168.981 58.3761 188.481 64.3761C207.981 70.3761 195.981 93.8761 223.481 96.3761Z" fill="#F8FAFC"/>
<path d="M71.8269 4.36332C65.4855 6.18177 65.4963 13.857 69.9994 15.3243C72.9031 16.2704 75.0134 16.2672 77.5834 14.3191C80.796 11.884 79.7536 2.09026 71.8269 4.36332Z" fill="#F8FAFC"/>
<path d="M50.2243 3.69202C46.901 6.98927 50.469 8.65014 52.6108 9.45514C54.4467 10.1451 55.4043 9.71635 56.4195 7.65428C57.6886 5.0767 54.3785 -0.429543 50.2243 3.69202Z" fill="#F8FAFC"/>
</svg>
