<?xml version="1.0" encoding="UTF-8"?>
<svg id="_레이어_1" data-name="레이어 1" xmlns="http://www.w3.org/2000/svg" xmlns:xlink="http://www.w3.org/1999/xlink" viewBox="0 0 433.29 369.14">
  <defs>
    <style>
      .cls-1 {
        fill: url(#_무제_그라디언트_4-3);
      }

      .cls-2 {
        fill: url(#_무제_그라디언트_4);
      }

      .cls-3 {
        fill: #1e293b;
      }

      .cls-4 {
        fill: url(#_무제_그라디언트_2);
      }

      .cls-5 {
        fill: url(#_무제_그라디언트_4-2);
      }

      .cls-6 {
        fill: none;
        stroke: #166534;
        stroke-miterlimit: 4;
        stroke-width: 5px;
      }

      .cls-7 {
        fill: #16a34a;
      }

      .cls-8 {
        fill: #475569;
      }

      .cls-9 {
        fill: #cdef8e;
      }

      .cls-10 {
        fill: #2dd9ca;
      }

      .cls-11 {
        fill-rule: evenodd;
      }

      .cls-11, .cls-12 {
        fill: #f8fafc;
      }

      .cls-13 {
        fill: #166534;
      }

      .cls-14 {
        fill: #fff;
        stroke: #1c283a;
        stroke-miterlimit: 4;
        stroke-width: 19.48px;
      }
    </style>
    <linearGradient id="_무제_그라디언트_2" data-name="무제 그라디언트 2" x1="99.33" y1="196.86" x2="100" y2="161.68" gradientTransform="translate(0 288.44) scale(1 -1)" gradientUnits="userSpaceOnUse">
      <stop offset="0" stop-color="#422006"/>
      <stop offset="1" stop-color="#a8510f"/>
    </linearGradient>
    <linearGradient id="_무제_그라디언트_4" data-name="무제 그라디언트 4" x1="-32.87" y1="146.19" x2="-32.87" y2="138.19" gradientTransform="translate(136.35 261.36) scale(1 -1)" gradientUnits="userSpaceOnUse">
      <stop offset="0" stop-color="#bfdbfe"/>
      <stop offset="1" stop-color="#60a5fa"/>
    </linearGradient>
    <linearGradient id="_무제_그라디언트_4-2" data-name="무제 그라디언트 4" x1="140.88" y1="203.42" x2="140.88" y2="195.42" gradientTransform="translate(-105.11 -29.35) rotate(90) scale(1 -1)" xlink:href="#_무제_그라디언트_4"/>
    <linearGradient id="_무제_그라디언트_4-3" data-name="무제 그라디언트 4" x1="66.26" y1="171.18" x2="66.26" y2="163.18" gradientTransform="translate(39.26 275.12) scale(1 -1)" xlink:href="#_무제_그라디언트_4"/>
  </defs>
  <path class="cls-8" d="M40.17,310.65c-.8-8.03,5.06-15.19,13.08-15.99l30.28-3.02,3.33,33.31-30.28,3.02c-8.03,.8-15.19-5.06-15.99-13.08l-.42-4.24Z"/>
  <polygon class="cls-8" points=".51 308.09 42.92 310.39 42.4 316.47 0 314.17 .51 308.09"/>
  <rect class="cls-9" x="80.72" y="155.2" width="144.26" height="151.56" transform="translate(-6.02 4.1) rotate(-1.51)"/>
  <path class="cls-9" d="M223.12,197.14l183.33-4.82c6.62-.17,12.14,5.05,12.31,11.68l2.52,95.71-195.32,5.14-2.83-107.7Z"/>
  <rect class="cls-10" x="123.99" y="181.37" width="57.22" height="57.22" rx="12" ry="12" transform="translate(-5.47 4.09) rotate(-1.51)"/>
  <rect class="cls-7" x="82.96" y="302.38" width="338.66" height="26" transform="translate(-8.23 6.77) rotate(-1.51)"/>
  <path class="cls-7" d="M58.06,132.7l176.46-4.64c6.89-.18,12.62,5.26,12.8,12.15h0c.18,6.89-5.26,12.62-12.15,12.8l-176.46,4.64c-6.89,.18-12.62-5.26-12.8-12.15h0c-.18-6.89,5.26-12.62,12.15-12.8Z"/>
  <circle class="cls-14" cx="119.91" cy="332.62" r="26.78"/>
  <circle class="cls-14" cx="396.76" cy="325.34" r="26.78"/>
  <path class="cls-11" d="M368.56,8.33s0-.07,0-.1c-.16-4.69-3.86-8.37-8.28-8.23-4.42,.15-7.87,4.07-7.71,8.76,.08,2.51,1.19,4.74,2.87,6.24-.39,1.16-.58,2.4-.54,3.69,.2,5.8,5.05,10.34,10.85,10.14,5.8-.19,10.34-5.05,10.14-10.85-.15-4.57-3.2-8.36-7.33-9.66Zm14.78,82.66c0-.07,0-.14,0-.21-.02-.6-.09-1.19-.2-1.77,6.86-1.57,11.88-7.83,11.64-15.13-.18-5.36-3.15-9.96-7.46-12.47,1.81-2.11,2.87-4.88,2.77-7.88-.21-6.35-5.53-11.32-11.88-11.11-6.35,.21-11.32,5.53-11.11,11.88,.11,3.2,1.51,6.06,3.7,8.07-3.79,2.84-6.18,7.43-6.01,12.52,.07,2.22,.63,4.3,1.55,6.17-3.7,2.02-6.15,5.99-6,10.49,.13,3.84,2.12,7.17,5.08,9.16-.45,1.48-.67,3.06-.61,4.7,.27,8,6.98,14.27,14.98,14,8-.27,14.27-6.97,14.01-14.98-.22-6.44-4.59-11.75-10.46-13.45Z"/>
  <path class="cls-11" d="M168.82,47.54c.04,3.04-2,5.62-4.8,6.38-.05,2.18-.89,4.16-2.25,5.68,3.27,1.99,5.48,5.58,5.53,9.69,.08,6.36-5,11.59-11.36,11.67-6.36,.08-11.59-5-11.67-11.36-.05-3.91,1.85-7.4,4.81-9.52-1.65-1.58-2.68-3.79-2.72-6.25-.06-4.88,3.84-8.88,8.71-8.95,.43,0,.85,.02,1.27,.07,1.01-2.24,3.25-3.81,5.86-3.85,3.6-.05,6.56,2.83,6.61,6.44Z"/>
  <rect class="cls-3" x="365.98" y="139.89" width="35.3" height="52.96" transform="translate(-5.37 12.97) rotate(-1.92)"/>
  <path class="cls-13" d="M137.5,88.65c-.03-1.1,.84-2.02,1.94-2.05l29.99-.82c1.1-.03,2.02,.84,2.05,1.94l.8,28.99c.18,6.62-5.04,12.14-11.67,12.32l-10,.27c-6.62,.18-12.14-5.04-12.32-11.67l-.8-28.99Z"/>
  <circle class="cls-6" cx="171.59" cy="104.22" r="6"/>
  <path class="cls-12" d="M82.28,89.37c-.02-1.1,.86-2.02,1.96-2.04l29.99-.57c1.1-.02,2.02,.86,2.04,1.96l.55,29c.13,6.63-5.14,12.1-11.77,12.23l-10,.19c-6.63,.13-12.1-5.14-12.23-11.77l-.55-29Z"/>
  <path class="cls-4" d="M86.14,93.83c-.02-1.1,.86-2.02,1.96-2.04l22.45-.43c1.1-.02,2.02,.86,2.04,1.96l.4,21.19c.13,6.63-5.14,12.1-11.77,12.23l-2.46,.05c-6.63,.13-12.1-5.14-12.23-11.77l-.4-21.19Z"/>
  <rect class="cls-2" x="99.48" y="115.17" width="8" height="8" rx="2" ry="2" transform="translate(-36.92 47.08) rotate(-21.85)"/>
  <rect class="cls-5" x="90.32" y="107.52" width="8" height="8" rx="2" ry="2" transform="translate(-29.32 189.28) rotate(-81.94)"/>
  <rect class="cls-1" x="101.52" y="103.95" width="8" height="8" rx="2" ry="2" transform="translate(-11.48 12.57) rotate(-6.47)"/>
</svg>